<?xml version="1.0" encoding="UTF-8"?>
<svg width="315px" height="110px" viewBox="0 0 315 110" version="1.1" xmlns="http://www.w3.org/2000/svg" xmlns:xlink="http://www.w3.org/1999/xlink">
    <!-- Generator: Sketch 47.1 (45422) - http://www.bohemiancoding.com/sketch -->
    <title>MB Logo Gray</title>
    <desc>Created with Sketch.</desc>
    <defs></defs>
    <g id="Page-1" stroke="none" stroke-width="1" fill="none" fill-rule="evenodd">
        <g id="MB-Logo-Gray" fill="#D9D9D9">
            <path d="M0.27173913,108.635947 L0.27173913,2.36179677 L0.27173913,2.36179677 C0.27173913,1.25722727 1.16716963,0.361796767 2.27173913,0.361796767 L19.674108,0.361796767 L19.674108,0.361796767 C19.9918594,0.361796767 20.290699,0.512808294 20.4791813,0.768621473 L49.1996777,39.7488453 L49.1996777,39.7488453 C49.5272793,40.193475 50.1532966,40.288345 50.5979263,39.9607433 C50.6778346,39.9018672 50.7485322,39.8314224 50.8076942,39.7517255 L79.7484861,0.765741221 L79.7484861,0.765741221 C79.9371316,0.511617943 80.2349396,0.361796767 80.5514293,0.361796767 L98.7317382,0.361796767 L98.7317382,0.361796767 C99.284023,0.361796767 99.7317382,0.809512017 99.7317382,1.36179677 L99.7317382,108.635947 L99.7317382,108.635947 C99.7317382,109.188232 99.284023,109.635947 98.7317382,109.635947 L78.0344102,109.635947 L78.0344102,109.635947 C77.4821255,109.635947 77.0344102,109.188232 77.0344102,108.635947 L77.0344102,45.4906841 L77.0344102,45.4906841 C77.0344102,44.9383993 76.586695,44.4906841 76.0344102,44.4906841 C75.7280024,44.4906841 75.4385064,44.6311584 75.2488901,44.871848 L50.7905366,75.9180808 L50.7905366,75.9180808 C50.4487628,76.3519116 49.8200111,76.4265386 49.3861803,76.0847649 C49.3231785,76.0351317 49.2663765,75.9780994 49.2169987,75.9148973 L24.9813914,44.8940083 L24.9813914,44.8940083 C24.6413759,44.4587982 24.0129313,44.3816276 23.5777211,44.7216431 C23.335147,44.9111584 23.1933736,45.2018326 23.1933736,45.5096609 L23.1933736,108.635947 L23.1933736,108.635947 C23.1933736,109.188232 22.7456584,109.635947 22.1933736,109.635947 L1.27173913,109.635947 L1.27173913,109.635947 C0.719454381,109.635947 0.27173913,109.188232 0.27173913,108.635947 Z" id="Path-2"></path>
            <text id="Mathbrainius-Creator" font-family="Helvetica-Light, Helvetica" font-size="33" font-weight="300" line-spacing="35">
                <tspan x="126" y="51">Mathbrainius</tspan>
                <tspan x="126" y="86">Creator</tspan>
            </text>
        </g>
    </g>
</svg>